<svg height="512pt" viewBox="0 0 512 512.00066" width="512pt" xmlns="http://www.w3.org/2000/svg"><path d="m255.585938 261.320312c-39.125 0-70.960938 31.832032-70.960938 70.960938s31.835938 70.960938 70.960938 70.960938c39.128906 0 70.964843-31.832032 70.964843-70.960938s-31.835937-70.960938-70.964843-70.960938zm0 126.941407c-30.867188 0-55.980469-25.113281-55.980469-55.980469s25.113281-55.980469 55.980469-55.980469c30.871093 0 55.984374 25.113281 55.984374 55.980469s-25.113281 55.980469-55.984374 55.980469zm0 0"/><path d="m169.109375 140.511719c0 6.882812 5.601563 12.484375 12.484375 12.484375h266.699219c6.882812 0 12.484375-5.601563 12.484375-12.484375v-26.28125c0-6.882813-5.597656-12.484375-12.484375-12.484375h-149.261719c-4.136719 0-7.492188 3.355468-7.492188 7.492187s3.355469 7.488281 7.492188 7.488281h146.765625v21.289063h-261.707031v-21.289063h79.984375c4.136719 0 7.492187-3.351562 7.492187-7.488281s-3.355468-7.492187-7.492187-7.492187h-82.480469c-6.882812 0-12.484375 5.601562-12.484375 12.484375zm0 0"/><path d="m363.105469 82.648438c4.136719 0 7.488281-3.355469 7.488281-7.492188s-3.351562-7.488281-7.488281-7.488281h-186.503907c-4.136718 0-7.492187 3.351562-7.492187 7.488281s3.355469 7.492188 7.492187 7.492188zm0 0"/><path d="m176.601562 184.980469h276.6875c4.136719 0 7.488282-3.355469 7.488282-7.492188s-3.351563-7.488281-7.488282-7.488281h-276.6875c-4.136718 0-7.492187 3.351562-7.492187 7.488281s3.355469 7.492188 7.492187 7.492188zm0 0"/><path d="m453.289062 82.648438c4.136719 0 7.488282-3.355469 7.488282-7.492188s-3.351563-7.488281-7.488282-7.488281h-54.117187c-4.136719 0-7.492187 3.351562-7.492187 7.488281s3.355468 7.492188 7.492187 7.492188zm0 0"/><path d="m70.238281 152.855469c-4.671875 0-8.433593 6.324219-8.433593 10.539062 0 8.433594 13.703124 18.222657 31.921874 18.675781v4.214844c0 1.957032 2.261719 3.765625 5.121094 3.765625 2.5625 0 5.121094-1.808593 5.121094-3.765625v-4.667968c16.863281-2.710938 28.460938-13.402344 28.460938-31.925782 0-20.480468-15.058594-27.257812-28.460938-32.226562v-26.503906c10.089844.753906 13.550781 5.574218 17.769531 5.574218 5.570313 0 7.980469-6.929687 7.980469-10.390625 0-8.738281-15.960938-11.597656-25.75-11.898437v-3.914063c0-1.957031-2.558594-3.765625-5.121094-3.765625-2.859375 0-5.117187 1.804688-5.117187 3.765625v4.214844c-15.058594 1.957031-29.214844 10.238281-29.214844 29.367187 0 19.273438 15.511719 25.148438 29.214844 30.265626v29.96875c-13.253907-1.507813-17.773438-11.292969-23.492188-11.292969zm32.523438-15.0625c6.476562 2.863281 11.296875 6.476562 11.296875 13.855469 0 7.078124-4.671875 10.992187-11.296875 12.347656zm-19.875-35.839844c0-5.722656 4.515625-9.335937 12.046875-10.539063v22.738282c-6.929688-2.710938-12.046875-5.574219-12.046875-12.199219zm0 0"/><path d="m472.328125 0h-433.480469c-21.421875 0-38.847656 17.425781-38.847656 38.847656v233.882813c0 4.136719 3.351562 7.492187 7.492188 7.492187 4.136718 0 7.488281-3.355468 7.488281-7.492187v-233.882813c0-13.160156 10.707031-23.867187 23.867187-23.867187h433.480469c13.160156 0 23.867187 10.707031 23.867187 23.867187v305.515625c0 13.160157-10.707031 23.867188-23.867187 23.867188h-124.105469c.074219-2.105469.28125-4.023438.792969-5.59375.875-2.699219 3.289063-5.855469 5.847656-9.199219 4.515625-5.902344 9.632813-12.597656 9.632813-21.15625s-5.117188-15.253906-9.632813-21.15625c-2.558593-3.34375-4.972656-6.503906-5.847656-9.199219-.957031-2.933593-.871094-7.058593-.785156-11.429687.148437-7.300782.316406-15.578125-4.53125-22.238282-4.894531-6.726562-12.859375-9.121093-19.886719-11.238281-4.144531-1.246093-8.0625-2.425781-10.496094-4.195312-2.375-1.730469-4.671875-5.054688-7.105468-8.578125-4.195313-6.078125-8.953126-12.96875-16.964844-15.570313-7.714844-2.503906-15.464844.1875-22.300782 2.5625-4.195312 1.457031-8.15625 2.832031-11.359374 2.832031-3.199219 0-7.164063-1.375-11.359376-2.832031-6.835937-2.375-14.582031-5.066406-22.300781-2.5625-8.011719 2.601563-12.765625 9.492188-16.964843 15.570313-2.433594 3.519531-4.730469 6.847656-7.105469 8.574218-2.433594 1.773438-6.347657 2.953126-10.496094 4.199219-7.027344 2.117188-14.988281 4.511719-19.882813 11.234375-4.847656 6.664063-4.683593 14.9375-4.535156 22.242188.085938 4.367187.171875 8.492187-.78125 11.429687-.878906 2.695313-3.292968 5.855469-5.847656 9.195313-4.515625 5.90625-9.636719 12.601562-9.636719 21.160156s5.117188 15.25 9.636719 21.15625c2.554688 3.34375 4.96875 6.5 5.847656 9.199219.507813 1.570312.71875 3.484375.792969 5.59375h-124.105469c-13.160156 0-23.867187-10.707031-23.867187-23.867188v-36.628906c0-4.136719-3.351563-7.488281-7.488281-7.488281-4.140626 0-7.492188 3.351562-7.492188 7.488281v36.628906c0 21.417969 17.425781 38.847657 38.847656 38.847657h124.242188c.394531 4.574218 1.496094 9.121093 4.386718 13.097656 4.894532 6.722656 12.859376 9.117187 19.882813 11.234375 4.148437 1.246093 8.066406 2.425781 10.496094 4.195312 2.375 1.730469 4.675781 5.058594 7.105469 8.578125 1.265624 1.832032 2.582031 3.734375 4.023437 5.574219v72.519531c0 4.480469 2.203125 8.667969 5.898437 11.203125 3.691407 2.535157 8.394532 3.089844 12.574219 1.480469l28.128907-10.839844 28.132812 10.835938c1.582031.609375 3.238281.910156 4.882812.910156 2.710938 0 5.394532-.808594 7.691407-2.386719 3.695312-2.535156 5.898437-6.722656 5.898437-11.203125v-72.519531c1.441406-1.839844 2.757813-3.742187 4.023438-5.574219 2.429687-3.523437 4.726562-6.847656 7.101562-8.578125 2.433594-1.769531 6.351563-2.949219 10.496094-4.195312 7.027344-2.117188 14.992188-4.511719 19.886719-11.234375 2.890625-3.976563 3.992187-8.523438 4.382812-13.097656h124.246094c21.417969 0 38.847656-17.425782 38.847656-38.847657v-305.515625c0-21.421875-17.429687-38.847656-38.847656-38.847656zm-185.117187 496.382812-26.738282-10.304687c-1.574218-.605469-3.230468-.90625-4.886718-.90625-1.652344 0-3.308594.300781-4.882813.90625l-26.738281 10.304687v-59.96875c1.507812.320313 3.015625.472657 4.515625.472657 5.488281 0 10.851562-1.863281 15.75-3.5625 4.195312-1.457031 8.15625-2.835938 11.355469-2.835938 3.203124 0 7.164062 1.378907 11.359374 2.835938 6.234376 2.164062 13.230469 4.582031 20.265626 3.089843zm55.75-152.042968c-3.207032 4.195312-6.527344 8.535156-8.195313 13.671875-1.730469 5.335937-1.621094 10.9375-1.511719 16.355469.105469 5.183593.214844 10.539062-1.667968 13.125-1.925782 2.648437-7.09375 4.203124-12.089844 5.703124-5.164063 1.554688-10.5 3.164063-14.996094 6.433594-4.4375 3.226563-7.574219 7.773438-10.613281 12.175782-2.988281 4.324218-6.074219 8.796874-9.265625 9.832031-2.929688.949219-7.929688-.785157-12.761719-2.464844-5.183594-1.800781-10.546875-3.660156-16.273437-3.660156-5.726563 0-11.089844 1.859375-16.273438 3.660156-4.832031 1.679687-9.828125 3.417969-12.757812 2.464844-3.191407-1.035157-6.28125-5.507813-9.265626-9.832031-3.039062-4.398438-6.179687-8.949219-10.617187-12.175782-4.492187-3.273437-9.832031-4.878906-14.996094-6.433594-4.992187-1.5-10.160156-3.054687-12.085937-5.703124-1.882813-2.585938-1.773438-7.945313-1.671875-13.125.109375-5.417969.222656-11.019532-1.511719-16.355469-1.667969-5.132813-4.984375-9.476563-8.195312-13.671875-3.222657-4.214844-6.554688-8.570313-6.554688-12.058594s3.332031-7.84375 6.554688-12.058594c3.210937-4.195312 6.527343-8.535156 8.195312-13.671875 1.734375-5.335937 1.621094-10.9375 1.511719-16.355469-.101563-5.179687-.210938-10.539062 1.671875-13.125 1.925781-2.644531 7.089844-4.203124 12.085937-5.703124 5.164063-1.554688 10.503907-3.164063 14.996094-6.429688 4.4375-3.230469 7.578125-7.78125 10.617187-12.175781 2.984376-4.328125 6.074219-8.796875 9.265626-9.835938.574218-.1875 1.230468-.269531 1.949218-.269531 2.9375 0 6.925782 1.386719 10.808594 2.734375 5.183594 1.800781 10.546875 3.664063 16.273438 3.664063 5.726562 0 11.089843-1.863282 16.273437-3.664063 4.832031-1.679687 9.832031-3.414063 12.761719-2.464844 3.1875 1.035157 6.277344 5.507813 9.265625 9.832031 3.035156 4.398438 6.175781 8.949219 10.613281 12.179688 4.496094 3.265625 9.832031 4.875 14.996094 6.429688 4.996094 1.5 10.164062 3.058593 12.089844 5.703124 1.878906 2.585938 1.773437 7.945313 1.667968 13.125-.109375 5.417969-.21875 11.019532 1.511719 16.355469 1.667969 5.136719 4.988281 9.476563 8.195313 13.671875 3.222656 4.214844 6.554687 8.570313 6.554687 12.058594s-3.332031 7.84375-6.554687 12.058594zm0 0"/><path d="m51.691406 252.421875c0 4.136719 3.351563 7.488281 7.488282 7.488281h88.730468c4.136719 0 7.492188-3.351562 7.492188-7.488281s-3.355469-7.492187-7.492188-7.492187h-88.730468c-4.136719 0-7.488282 3.355468-7.488282 7.492187zm0 0"/><path d="m59.179688 291.539062h71.902343c4.136719 0 7.488281-3.355468 7.488281-7.488281 0-4.140625-3.351562-7.492187-7.488281-7.492187h-71.902343c-4.136719 0-7.488282 3.355468-7.488282 7.492187s3.351563 7.488281 7.488282 7.488281zm0 0"/><path d="m59.179688 323.167969h59.917968c4.136719 0 7.492188-3.355469 7.492188-7.488281 0-4.140626-3.355469-7.492188-7.492188-7.492188h-59.917968c-4.136719 0-7.488282 3.355469-7.488282 7.492188 0 4.136718 3.351563 7.488281 7.488282 7.488281zm0 0"/><path d="m451.996094 244.929688h-88.734375c-4.136719 0-7.488281 3.355468-7.488281 7.492187s3.351562 7.488281 7.488281 7.488281h88.734375c4.136718 0 7.488281-3.351562 7.488281-7.488281s-3.351563-7.492187-7.488281-7.492187zm0 0"/><path d="m451.996094 276.558594h-71.902344c-4.136719 0-7.492188 3.355468-7.492188 7.492187s3.355469 7.488281 7.492188 7.488281h71.902344c4.136718 0 7.488281-3.355468 7.488281-7.488281 0-4.136719-3.351563-7.492187-7.488281-7.492187zm0 0"/><path d="m451.996094 308.1875h-59.917969c-4.140625 0-7.492187 3.355469-7.492187 7.492188 0 4.136718 3.351562 7.488281 7.492187 7.488281h59.917969c4.136718 0 7.488281-3.355469 7.488281-7.488281 0-4.140626-3.351563-7.492188-7.488281-7.492188zm0 0"/></svg>