<svg id="Capa_1" enable-background="new 0 0 512 512" height="512" viewBox="0 0 512 512" width="512" xmlns="http://www.w3.org/2000/svg"><g><path d="m369.071 62.929c-1.876-1.875-4.419-2.929-7.071-2.929h-102.013c-18.711-36.653-56.466-60-97.987-60-60.654 0-110 49.346-110 110s49.346 110 110 110c30.337 0 58.517-12.104 79.155-33.601 20.388 28.473 46.111 53.601 94.365 53.601h42.338l117.071 117.071c2.861 2.861 7.161 3.714 10.898 2.168 3.736-1.548 6.173-5.194 6.173-9.239v-140c0-2.652-1.054-5.195-2.929-7.071zm-207.071 137.071c-49.626 0-90-40.374-90-90s40.374-90 90-90c35.795 0 68.185 21.197 82.516 54.003 3.631 8.313 5.947 17.023 6.933 25.997h-29.449c-5.522 0-10 4.478-10 10 0 19.368 11.252 36.667 28.013 44.905-16.02 27.764-45.23 45.095-78.013 45.095zm330 125.857-86.5-86.5c3.794-1.42 6.5-5.068 6.5-9.358 0-5.522-4.478-10-10-10h-66.48c-41.75 0-62.286-22.104-81.385-49.905 2.14-3.274 4.102-6.663 5.879-10.145.661.026 1.323.05 1.986.05h16.734c11.483 24.192 36.074 40 63.266 40 5.522 0 10-4.478 10-10s-4.478-10-10-10c-21.157 0-40.11-13.396-47.162-33.334-1.413-3.995-5.19-6.666-9.428-6.666h-23.41c-12.877 0-24.065-8.158-28.275-20h108.275c5.522 0 10-4.478 10-10s-4.478-10-10-10h-70.454c-.609-6.796-1.84-13.475-3.689-20h90.001l134.142 134.144z"/><path d="m162.17 99.58c-5.514 0-10-4.486-10-10 0-5.47 4.446-9.955 9.9-10 .024 0 .049-.001.073-.001 3.561 0 7.309 1.807 10.843 5.227 3.968 3.843 10.301 3.739 14.14-.231 3.841-3.969 3.737-10.299-.231-14.14-5.13-4.965-10.269-7.757-14.895-9.263v-11.172c0-5.522-4.478-10-10-10s-10 4.478-10 10v11.368c-11.541 4.19-19.83 15.282-19.83 28.212 0 16.542 13.458 30 30 30 5.514 0 10 4.486 10 10 0 5.553-4.503 10.001-9.986 10.001-.03 0-.061 0-.092-.001-4.328-.039-8.788-2.651-12.897-7.554-3.549-4.234-9.854-4.788-14.088-1.239-4.232 3.548-4.788 9.854-1.24 14.087 5.287 6.307 11.518 10.723 18.134 12.979v12.147c0 5.522 4.478 10 10 10s10-4.478 10-10v-12.061c11.515-3.982 20.17-14.992 20.17-28.359-.001-16.542-13.459-30-30.001-30z"/><path d="m156 246c-5.522 0-10 4.478-10 10v41.857l-2.929-2.929c-3.906-3.904-10.236-3.904-14.143 0-3.905 3.905-3.905 10.237 0 14.143l20 20c1.954 1.952 4.512 2.929 7.072 2.929s5.118-.977 7.071-2.929l20-20c3.905-3.905 3.905-10.237 0-14.143-3.906-3.904-10.236-3.904-14.143 0l-2.928 2.929v-41.857c0-5.522-4.478-10-10-10z"/><circle cx="146" cy="502" r="10"/><path d="m72.748 392h-62.748c-5.522 0-10 4.478-10 10v100c0 5.522 4.478 10 10 10h91c5.522 0 10-4.478 10-10s-4.478-10-10-10h-81v-80.01h46.723c-.472 3.307-.723 6.644-.723 10.01 0 5.522 4.478 10 10 10s10-4.478 10-10c0-5.725.955-11.334 2.838-16.667 7.049-19.937 26.002-33.333 47.162-33.343h68.286c-4.127 11.651-15.249 20.01-28.286 20.01h-40c-5.522 0-10 4.478-10 10 0 27.57 22.43 50 50 49.99h95.276c.068.011.136.02.205.02 2.56 0 5.118-.977 7.071-2.929l48.3-48.3c.04-.039.073-.084.112-.124 9.485-9.165 23.638-10.811 34.807-4.966l-78.492 96.309h-92.279c-5.522 0-10 4.478-10 10s4.478 10 10 10h97.03c3.006 0 5.853-1.353 7.752-3.683l88.06-108.05c3.241-3.978 2.946-9.764-.684-13.391-17.137-17.13-43.901-19.168-63.332-6.067-19.47-13.399-46.394-11.466-63.688 5.828l-45.361 45.363h-34.777c-13.037 0-24.159-8.359-28.286-20h28.286c27.57 0 50-22.43 50-50 0-5.522-4.478-10-10-10h-80c-27.191 0-51.768 15.811-63.252 40zm197.533 8.781c9.209-9.212 22.977-11.166 34.129-5.862l-37.083 37.081h-28.265z"/></g></svg>