<svg id="Layer_1" enable-background="new 0 0 512 512" height="512" viewBox="0 0 512 512" width="512" xmlns="http://www.w3.org/2000/svg"><g><g><path d="m511.537 432.994-27.334-86.667c-1.313-4.162-5.173-6.992-9.537-6.992h-47.334l-25.129-79.675c-1.313-4.162-5.173-6.992-9.537-6.992h-47.334l-25.129-79.674c-1.313-4.162-5.173-6.992-9.537-6.992h-109.332c-4.364 0-8.224 2.83-9.537 6.992l-25.129 79.674h-47.334c-4.364 0-8.224 2.83-9.537 6.992l-25.128 79.675h-47.335c-4.364 0-8.224 2.83-9.537 6.992l-27.334 86.667c-.958 3.038-.411 6.351 1.472 8.92 1.884 2.569 4.879 4.087 8.065 4.087h164 .008 36.996c5.523 0 10-4.477 10-10s-4.477-10-10-10h-23.364l21.026-66.667h94.669l21.026 66.667h-23.356c-5.523 0-10 4.477-10 10s4.477 10 10 10h36.988.008 164c3.186 0 6.181-1.518 8.065-4.087 1.882-2.569 2.429-5.882 1.471-8.92zm-105.176-93.658h-41.027-54.656c-.004 0-.008 0-.012 0h-41.026l21.026-66.667h94.669zm-150.361-23.248-13.694-43.42h27.389zm-47.334-130.086h94.669l21.026 66.667h-41.026-54.668-41.027zm-82 86.666h94.669l21.026 66.667h-41.026c-.004 0-.008 0-.012 0h-54.656-41.027zm-103.026 153.334 21.026-66.667h94.669l21.026 66.667zm150.36-23.247-13.694-43.42h27.388zm150.306-43.419h27.388l-13.694 43.419zm27.334 66.666 21.026-66.667h94.669l21.026 66.667z"/><path d="m256 117.157c5.523 0 10-4.477 10-10v-31.159c0-5.523-4.477-10-10-10s-10 4.477-10 10v31.159c0 5.523 4.477 10 10 10z"/><path d="m304.334 127.428c1.575.91 3.294 1.342 4.991 1.342 3.456 0 6.817-1.794 8.669-5.002l15.579-26.984c2.762-4.783 1.123-10.899-3.66-13.66-4.783-2.762-10.899-1.123-13.66 3.66l-15.579 26.984c-2.762 4.783-1.123 10.899 3.66 13.66z"/><path d="m351.066 160.492c1.696 0 3.416-.433 4.991-1.342l26.984-15.579c4.783-2.761 6.422-8.877 3.66-13.66-2.761-4.783-8.878-6.423-13.66-3.66l-26.984 15.579c-4.783 2.761-6.422 8.877-3.66 13.66 1.851 3.208 5.212 5.002 8.669 5.002z"/><path d="m194.006 123.768c1.852 3.208 5.213 5.002 8.669 5.002 1.696 0 3.416-.433 4.991-1.342 4.783-2.761 6.422-8.877 3.66-13.66l-15.579-26.984c-2.761-4.784-8.878-6.422-13.66-3.66-4.783 2.761-6.422 8.877-3.66 13.66z"/><path d="m128.96 143.571 26.984 15.579c1.575.91 3.294 1.342 4.991 1.342 3.456 0 6.817-1.794 8.669-5.002 2.762-4.783 1.123-10.899-3.66-13.66l-26.984-15.579c-4.782-2.762-10.898-1.123-13.66 3.66-2.762 4.782-1.123 10.899 3.66 13.66z"/><path d="m256.007 426.002h-.007c-5.523 0-9.996 4.477-9.996 10s4.48 10 10.003 10 10-4.477 10-10-4.477-10-10-10z"/></g></g></svg>