<?xml version="1.0" encoding="iso-8859-1"?>
<!-- Generator: Adobe Illustrator 19.0.0, SVG Export Plug-In . SVG Version: 6.00 Build 0)  -->
<svg version="1.1" id="Capa_1" xmlns="http://www.w3.org/2000/svg" xmlns:xlink="http://www.w3.org/1999/xlink" x="0px" y="0px"
	 viewBox="0 0 480 480" style="enable-background:new 0 0 480 480;" xml:space="preserve">
<g>
	<g>
		<path d="M303.281,335.039c-2.454-9.118-10.872-15.338-20.309-15.008h-0.086l-168.373,15.696l-21.67-14.392
			c-1.311-0.872-2.851-1.337-4.425-1.335H48c0.001-4.417-3.579-7.999-7.996-8c-0.001,0-0.003,0-0.004,0H8
			c-4.417-0.001-7.999,3.579-8,7.996c0,0.001,0,0.003,0,0.004v96c-0.001,4.417,3.579,7.999,7.996,8c0.001,0,0.003,0,0.004,0h32
			c4.417,0.001,7.999-3.579,8-7.996c0-0.001,0-0.003,0-0.004h14.203l70.523,39c2.557,1.415,5.683,1.322,8.152-0.242l152.992-96.906
			C301.865,353.303,305.744,343.901,303.281,335.039z M32,408H16v-80h16V408z M285.57,344.179l-149.25,94.524L68.141,401
			c-1.185-0.656-2.517-1-3.871-1H48v-64h38.004l52.629,34.953c5.496,3.635,7.005,11.038,3.37,16.535
			c-0.133,0.201-0.272,0.398-0.417,0.59c-3.861,5.091-11.012,6.309-16.34,2.781l-32.402-21.523l-8.852,13.328l32.402,21.523
			c12.84,8.612,30.23,5.186,38.843-7.654c8.612-12.84,5.186-30.23-7.654-38.843c-0.033-0.022-0.066-0.044-0.099-0.066l-11.752-7.805
			L283.629,336c1.989-0.091,3.759,1.254,4.203,3.195C288.406,341.187,287.447,343.3,285.57,344.179z"/>
	</g>
</g>
<g>
	<g>
		<polygon points="392,104 392,80 376,80 376,104 352,104 352,120 376,120 376,144 392,144 392,120 416,120 416,104 		"/>
	</g>
</g>
<g>
	<g>
		<polygon points="448,32 448,8 432,8 432,32 408,32 408,48 432,48 432,72 448,72 448,48 472,48 472,32 		"/>
	</g>
</g>
<g>
	<g>
		<polygon points="456,168 456,144 440,144 440,168 416,168 416,184 440,184 440,208 456,208 456,184 480,184 480,168 		"/>
	</g>
</g>
<g>
	<g>
		<path d="M408,232c-41.047,0-72,17.195-72,40v165c0,24.109,31.625,43,72,43c40.375,0,72-18.891,72-43V272
			C480,249.195,449.047,232,408,232z M464,437c0,12.773-23,27-56,27s-56-14.227-56-27v-12.694
			c16.601,10.883,36.161,16.365,56,15.694c19.839,0.67,39.399-4.812,56-15.694V437z M464,397c0,12.773-23,27-56,27s-56-14.227-56-27
			v-12.672c16.605,10.871,36.164,16.345,56,15.672c19.836,0.673,39.395-4.801,56-15.672V397z M464,357c0,12.773-23,27-56,27
			s-56-14.227-56-27v-12.694c16.601,10.883,36.161,16.365,56,15.694c19.839,0.67,39.399-4.812,56-15.694V357z M464,317
			c0,12.773-23,27-56,27s-56-14.227-56-27v-12.672c16.605,10.871,36.164,16.345,56,15.672c19.836,0.673,39.395-4.801,56-15.672V317z
			 M464,277c0,12.773-23,27-56,27s-56-14.227-56-27v-5c0-11.328,23.949-24,56-24c32.051,0,56,12.672,56,24V277z"/>
	</g>
</g>
<g>
	<g>
		<path d="M289.875,40c8.843-9.866,8.013-25.033-1.853-33.875C283.619,2.179,277.913-0.003,272,0H8C3.583-0.001,0.001,3.579,0,7.996
			C0,7.997,0,7.999,0,8v96c-0.001,4.417,3.579,7.999,7.996,8c0.001,0,0.003,0,0.004,0h88.59c-0.393,2.648-0.59,5.322-0.59,8
			c0.035,9.807,2.676,19.428,7.651,27.879c-15.605,26.702-6.609,60.999,20.093,76.605c26.702,15.605,60.999,6.609,76.605-20.093
			c10.202-17.456,10.202-39.055,0-56.511c4.975-8.451,7.616-18.073,7.651-27.879c0-2.678-0.197-5.352-0.59-8H272
			c13.249,0.006,23.994-10.729,24-23.978c0.003-5.913-2.178-11.619-6.125-16.022C298.042,62.896,298.042,49.104,289.875,40z
			 M152,192c-4.961,0-8-2.586-8-4h-16c0.472,9.165,7.029,16.876,16,18.814v8.377c-18.609-3.825-31.974-20.193-32-39.191
			c0.026-18.998,13.391-35.366,32-39.191v8.377c-8.971,1.938-15.528,9.649-16,18.814c0,14.594,13.879,17.844,22.172,19.781
			c7.625,1.781,9.828,2.727,9.828,4.219C160,189.414,156.961,192,152,192z M191.192,184c-3.206,15.709-15.483,27.985-31.192,31.192
			v-8.377c8.971-1.938,15.528-9.649,16-18.814c0-14.617-13.891-17.859-22.188-19.805C146.199,166.422,144,165.477,144,164
			c0-1.414,3.039-4,8-4s8,2.586,8,4h16c-0.472-9.165-7.029-16.877-16-18.814v-8.377C181.645,141.227,195.61,162.355,191.192,184z
			 M144,120c0-4.418,3.582-8,8-8s8,3.582,8,8c-0.03,0.209-0.07,0.416-0.122,0.62c-5.219-0.827-10.536-0.827-15.756,0
			C144.07,120.416,144.03,120.209,144,120z M272,48c4.418,0,8,3.582,8,8s-3.582,8-8,8h-96v16h96c4.418,0,8,3.582,8,8s-3.582,8-8,8
			h-74.789c-4.421,0.002-8.003,3.588-8,8.009c0,0.907,0.155,1.808,0.458,2.663c3.254,8.946,3.098,18.776-0.438,27.614
			c-4.147-3.71-8.823-6.782-13.874-9.116c0.405-1.694,0.621-3.429,0.643-5.171c0-13.255-10.745-24-24-24s-24,10.745-24,24
			c0.022,1.742,0.238,3.476,0.644,5.17c-5.051,2.334-9.727,5.406-13.874,9.116c-3.536-8.838-3.691-18.669-0.438-27.614
			c1.473-4.168-0.712-8.741-4.88-10.215c-0.855-0.302-1.756-0.457-2.663-0.457H16V16h256c4.418,0,8,3.582,8,8s-3.582,8-8,8h-96v16
			H272z"/>
	</g>
</g>
<g>
</g>
<g>
</g>
<g>
</g>
<g>
</g>
<g>
</g>
<g>
</g>
<g>
</g>
<g>
</g>
<g>
</g>
<g>
</g>
<g>
</g>
<g>
</g>
<g>
</g>
<g>
</g>
<g>
</g>
</svg>
