<?xml version="1.0"?>
<svg xmlns="http://www.w3.org/2000/svg" xmlns:xlink="http://www.w3.org/1999/xlink" id="Layer_1" data-name="Layer 1" viewBox="0 0 512 512" width="512" height="512"><defs><linearGradient id="linear-gradient" x1="368.5" y1="500.62" x2="368.5" y2="17.624" gradientUnits="userSpaceOnUse"><stop offset="0.322" stop-color="#a163f5"/><stop offset="0.466" stop-color="#b074ee"/><stop offset="0.752" stop-color="#d8a1dd"/><stop offset="0.898" stop-color="#efbad3"/></linearGradient><linearGradient id="linear-gradient-2" x1="255.991" y1="500.62" x2="255.991" y2="17.624" xlink:href="#linear-gradient"/><linearGradient id="linear-gradient-3" x1="385" y1="500.62" x2="385" y2="17.624" xlink:href="#linear-gradient"/></defs><title> Sales Analytics Rupees</title><path d="M279.864,203H457a5.943,5.943,0,0,0,6-5.932c0-48.413-19.009-94.383-53.524-129.5-.025-.025-.049-.032-.074-.056-35.122-34.516-81.058-53.516-129.47-53.516A5.95,5.95,0,0,0,274,20V197.135A5.772,5.772,0,0,0,279.864,203ZM450.9,191H372l63.994-63.993A171.546,171.546,0,0,1,450.9,191Zm-20.518-75.281L355.029,191H293.792L404.812,80.013A176.494,176.494,0,0,1,430.378,115.719ZM286,26.1a170.266,170.266,0,0,1,63.225,14.559L286,103.888Zm0,94.753,74.555-74.623a176.377,176.377,0,0,1,35.85,25.42L286,182.094Z" style="fill:url(#linear-gradient)"/><path d="M391.783,306.243a181.563,181.563,0,0,0,5.487-44.368,5.9,5.9,0,0,0-6-5.875H220V84.62a5.942,5.942,0,0,0-5.93-6A181.957,181.957,0,0,0,84.485,132.214c-34.513,35.122-53.5,81.126-53.5,129.536,0,100.984,82.165,183.14,183.149,183.14a181.386,181.386,0,0,0,78.3-17.417,96,96,0,1,0,99.353-121.23ZM289.928,415.381A169.42,169.42,0,0,1,214.14,432.9C119.772,432.9,43,356.117,43,261.75c0-45.245,17.715-88.261,49.973-121.087A170.891,170.891,0,0,1,208,90.722V261.75a6.339,6.339,0,0,0,6.14,6.25H385.165a169.3,169.3,0,0,1-5.769,38.292A95.873,95.873,0,0,0,289,402.031,96.348,96.348,0,0,0,289.928,415.381ZM385,486a84,84,0,0,1-.944-167.991l.112,0c.221-.007.448-.007.676-.007H385a84,84,0,0,1,0,168Z" style="fill:url(#linear-gradient-2)"/><path d="M421,356a6,6,0,0,0-6-6H355a6,6,0,0,0,0,12h17.169a19.956,19.956,0,0,1,18.805,14H355a6,6,0,0,0,0,12h35.974c-2.547,8-10.01,13-18.805,13H355a6.259,6.259,0,0,0-4.121,10.712l42.912,40.608a5.979,5.979,0,0,0,8.482-.195,6.278,6.278,0,0,0-.24-8.709L370.085,413h2.084c15.451,0,28.352-11,31.167-25H415a6,6,0,0,0,0-12H403.336A33.659,33.659,0,0,0,397,362h18A6,6,0,0,0,421,356Z" style="fill:url(#linear-gradient-3)"/></svg>
