<svg id="Layer_5" enable-background="new 0 0 64 64" height="512" viewBox="0 0 64 64" width="512" xmlns="http://www.w3.org/2000/svg"><g><path d="m63 39.241c0-6.755-3.393-12.968-9.074-16.62l-2.846-1.83c1.12-.435 1.92-1.518 1.92-2.791 0-1.526-1.149-2.775-2.624-2.962l4.624-4.624v-.414c0-2.213-1.656-4.089-3.853-4.364l-1.842-.23.96-3.119-5.667-1.417-2.551 3.4-1.587-2.382-6.768 1.354.733 2.198-1.574.196c-2.195.275-3.851 2.151-3.851 4.364v.414l4.624 4.624c-1.475.187-2.624 1.436-2.624 2.962 0 1.273.8 2.356 1.921 2.791l-2.846 1.83c-5.682 3.652-9.075 9.865-9.075 16.62 0 .588.035 1.175.086 1.759h-9.735l-4.351 9.788v.212h-1.649l-4.351 9.788v2.212h16 2.042 31.958v-2.212l-1.284-2.889c7.873-2.734 13.284-10.239 13.284-18.658zm-12.101-31.621c1.068.134 1.902.963 2.069 1.996l-5.382 5.384h-1.232l2.355-7.654zm-11.36-3.508 2.413 3.618 3.449-4.6 2.333.583-3.473 11.287h-4.541l-3.413-10.241zm-6.438 3.508 1.97-.246 2.542 7.626h-1.199l-5.383-5.384c.167-1.033 1.001-1.862 2.07-1.996zm.899 9.38h16c.552 0 1 .448 1 1s-.448 1-1 1h-16c-.552 0-1-.448-1-1s.448-1 1-1zm8.905 34h-17.905v-.212l-3.461-7.788h17.812zm-30.256-8h6.7l3.556 8h-1.555-12.255zm5.351 15.538-2.461-5.538h4.923zm-11.351-5.538h.351 1 5.35l3.556 8h-13.811zm16 0h6.7l3.556 8h-13.81zm12.351 8v-.212l-3.461-7.788h13.461.351l3.555 8zm13.9-4.936-2.251-5.064h-1.649v-.212l-1.697-3.819c2.613-.16 4.697-2.316 4.697-4.969 0-2.757-2.243-5-5-5h-2c-1.654 0-3-1.346-3-3s1.346-3 3-3h5v3h2v-5h-5v-2h-2v2c-2.757 0-5 2.243-5 5s2.243 5 5 5h2c1.654 0 3 1.346 3 3s-1.346 3-3 3h-.573l-1.778-4h-17.552c-.057-.583-.097-1.17-.097-1.759 0-6.071 3.049-11.655 8.156-14.938l5.137-3.303h11.413l5.137 3.303c5.108 3.283 8.157 8.867 8.157 14.938 0 7.624-4.938 14.413-12.1 16.823z"/><path d="m25.002 38.984 2 .031c.063-3.962 1.826-7.699 4.838-10.253l-1.293-1.525c-3.451 2.926-5.473 7.208-5.545 11.747z"/><path d="m31.956 26.171 1.117 1.658 1.531-.988-1.082-1.682z"/><path d="m55.945 44.507 1.846.77c.273-.655.504-1.335.686-2.02l-1.934-.514c-.158.599-.359 1.193-.598 1.764z"/><path d="m58.999 39.042h-2l.001.199c0 .561-.034 1.124-.103 1.674l1.984.246c.079-.632.119-1.277.119-1.92z"/><path d="m54.066 47.718 1.576 1.23c.435-.556.837-1.148 1.197-1.762l-1.725-1.014c-.315.539-.668 1.058-1.048 1.546z"/><path d="m51.404 50.314 1.191 1.605c.567-.421 1.114-.887 1.624-1.384l-1.396-1.432c-.445.436-.923.843-1.419 1.211z"/><path d="m14 13h2v2h-2z"/><path d="m14 17h2v2h-2z"/><path d="m16 15h2v2h-2z"/><path d="m12 15h2v2h-2z"/><path d="m15 33h2v2h-2z"/><path d="m15 37h2v2h-2z"/><path d="m17 35h2v2h-2z"/><path d="m13 35h2v2h-2z"/><path d="m23 3h2v2h-2z"/><path d="m23 7h2v2h-2z"/><path d="m25 5h2v2h-2z"/><path d="m21 5h2v2h-2z"/><path d="m57 13h2v2h-2z"/><path d="m57 17h2v2h-2z"/><path d="m59 15h2v2h-2z"/><path d="m55 15h2v2h-2z"/><path d="m6 26h2v2h-2z"/><path d="m6 30h2v2h-2z"/><path d="m8 28h2v2h-2z"/><path d="m4 28h2v2h-2z"/><path d="m6 4h2v2h-2z"/><path d="m6 8h2v2h-2z"/><path d="m8 6h2v2h-2z"/><path d="m4 6h2v2h-2z"/></g></svg>